<svg xmlns="http://www.w3.org/2000/svg" viewBox="0 0 132.292 132.292"><path fill="#fff" stroke-width=".08" d="M126.973 52.923H84.654a5.27 5.27 0 0 1-5.302-5.302V5.302A5.27 5.27 0 0 0 74.05.033H58.209a5.27 5.27 0 0 0-5.302 5.27V47.62a5.27 5.27 0 0 1-5.303 5.302h-15.84a5.27 5.27 0 0 1-5.302-5.302V5.302A5.27 5.27 0 0 0 21.159 0H5.286a5.27 5.27 0 0 0-5.27 5.302V126.99a5.27 5.27 0 0 0 5.303 5.303h121.654a5.27 5.27 0 0 0 5.302-5.303V58.325a5.27 5.27 0 0 0-5.302-5.402zM105.697 97.86a7.92 7.92 0 0 1-7.92 7.953H87.173a7.92 7.92 0 0 1-7.92-7.953V87.29a7.92 7.92 0 0 1 7.92-7.954h10.604a7.92 7.92 0 0 1 7.92 7.954z" class="cls-2"/></svg>
