<svg xmlns="http://www.w3.org/2000/svg" viewBox="0 0 800 800"><path d="M433.33 500h100" style="stroke-miterlimit:133.33;fill:none;stroke:#fff;stroke-width:66.67px;stroke-linecap:round"/><path d="M266.67 500 350 416.67h0c9.2-9.2 9.2-24.13 0-33.33h0l-83.33-83.33" style="stroke-linejoin:round;fill:none;stroke:#fff;stroke-width:66.67px;stroke-linecap:round"/><path d="M100 266.67c0-62.85 0-94.28 19.53-113.81s50.95-19.53 113.81-19.53h333.33c62.85 0 94.28 0 113.81 19.53s19.53 50.95 19.53 113.81v266.67c0 62.85 0 94.28-19.53 113.81s-50.95 19.53-113.81 19.53H233.33c-62.85 0-94.28 0-113.81-19.53S99.99 596.2 99.99 533.34V266.67Z" style="stroke-linejoin:round;fill:none;stroke:#fff;stroke-width:66.67px"/></svg>