<?xml version="1.0" encoding="utf-8"?>
<svg xmlns="http://www.w3.org/2000/svg" viewBox="559.3591 -16.7156 291.74 234.4767" width="291.74px" height="234.477px">
  <defs>
    <linearGradient id="Gradient_bez_nazwy_206" data-name="Gradient bez nazwy 206" x1="1207.62" y1="562.3" x2="1123.01" y2="856.09" gradientUnits="userSpaceOnUse">
      <stop offset="0.17" stop-color="#a72b00"/>
      <stop offset="0.26" stop-color="#b63800"/>
      <stop offset="0.52" stop-color="#dd5c00"/>
      <stop offset="0.73" stop-color="#f67100"/>
      <stop offset="0.86" stop-color="#ff7a01"/>
    </linearGradient>
  </defs>
  <g id="Warstwa_2" style="" transform="matrix(0.16990000009536743, 0, 0, 0.17999102175235748, 848.3106079101562, 63.65400695800781)">
    <g id="Warstwa_1-2" data-name="Warstwa 1" transform="matrix(1, 0, 0, 1, -1700.713135, -446.516083)">
      <path d="M1015.91,255.31c-.18-.21-.36-.43-.54-.64.2.44.41.86.59,1.3-.02-.23-.04-.44-.06-.66Z"/>
      <path d="M847.1,360.04h-.02c-.01.08-.03.16-.04.24.02-.08.04-.16.06-.24Z"/>
      <path d="M843.88,386.78c.31-8.84,1.69-17.67,3.16-26.51-2.27,8.37-4.21,17.85-3.16,26.51Z"/>
      <path d="M1305.08,297.4c.79.53,1.58.81,2.37.23-.58-.08-1.14-.13-1.72-.23-.25,0-.46,0-.65,0Z"/>
      <path d="M1303.81,296.79c.12.49.43.59,1.27.61-.27-.18-.54-.39-.82-.61h-.45Z"/>
      <path d="M1508.93,293.63c-.15-.72-.31-1.47-.48-2.23h-.76c.46.73.85,1.48,1.24,2.23Z"/>
      <path class="cls-6" d="M772.27,134.7c-56.11,22.38-64.01,35.68-70.67,56.86-20.41,64.84.57,80.27-47.5,117.52-33.02,19.99-57.54,23.46-96.86,13.04,13.17-11.62,28.81-26.03,39.65-39.65,18.9-23.75,23.21-44.66,35.25-61.68,23.7-33.51,96.01-89.86,140.13-86.09Z" style="fill: rgb(165, 116, 73);"/>
      <path class="cls-7" d="M1238.92,101.54c1.27.53,3.24-.57,4.41,0,.49.24-.47,6.42.06,8.84l4.35-4.43c.9.72,3.54-.72,4.41,0l13.22,35.25c-5.56.31-14.96-5.02-24.09-4.55-34.5,1.78-30.85,40.81-24.37,66.23-21.39-4.35-27.74-35.51-35.25-52.87-1.4-3.24-3.85-7.27-4.41-8.81-.52-1.43-3.91-2.92-4.41-4.41l-4.41-4.41c-.67-3.3-.71-14.41,0-17.62,7.49-34.07,44.89-24,70.49-13.22Z" style="fill: rgb(229, 191, 127);"/>
      <path class="cls-6" d="M1397.53,387.92c3.98,4.51,6.39,7.5,8.81,13.22-10.67-23.84-43.32,7.61-50.96,8.88-14.81,2.46-29.9-8.53-47.18-3.55-14.06,4.05-42.36,60.56-29.63,7.89,35.8-23.84,75.07-40.46,118.96-26.43Z" style="fill: rgb(165, 116, 73);"/>
      <path class="cls-4" d="M1375.89,443.74c-7.7-4.84-51.43-32.02-57.21-33.16-4.05-.79-15.41-1.17-19.73-.51-29.63,4.48-43.76,34.09-30.94,57.07,5.51,9.88,78.14,48.11,94.42,59.46,99.72,69.53,240.67,233.74,258.23,344.27,18.51,116.56-57.31,194.65-179.93,220.87,8.44,30.21,16.74,60.89,23.34,93.28,22.89-6.42,44.95-13.91,65.97-22.63,86.77-36.01,160.85-104.84,180.25-188.96,47.07-204.06-158.13-418.83-334.4-529.69Z" style="fill: rgb(255, 255, 255); stroke: rgb(0, 0, 0); stroke-miterlimit: 10; stroke-width: 20px;"/>
      <polygon class="cls-1" points="986.09 501.4 1022.09 564.72 1049.41 592.71 1089.4 626.03 1116.06 643.36 1136.73 650.7 1126.06 620.04 1082.07 568.71 1041.42 526.06 1028.75 495.4 1012.41 450.74 986.09 448.55 973.86 480.25 986.09 501.4" style="fill: rgb(142, 142, 142);"/>
      <polygon class="cls-2" points="1421.43 398.09 1407.33 381.72 1379.34 358.1 1354.25 334.1 1307.93 291.99 1288.13 264.97 1338.47 264.78 1400.67 256.4 1376.67 233.98 1346.01 184.66 1322.02 116.82 1290.69 56.83 1261.88 24.9 1227.37 12.84 1168.72 12.84 1121.72 35.5 1086.07 35.5 979.43 46.17 890.12 88.82 835.46 72.83 790.35 60.83 676.22 77.53 630.17 151.48 586.18 256.4 532.86 320.77 551.53 336.77 608.85 339.43 666.21 311.44 702.16 271.83 719.49 291.99 750.15 291.99 790.35 307.44 804.86 362.09 783.47 798 738.15 1019.15 713.66 1126.66 825.04 1129.66 959.43 1168.58 1273.83 1087.83 1218.97 1008.03 1172.72 949.96 1147.39 888.66 1132.73 810.48 1138.06 742.01 1198.62 772.72 1174.05 720.28 1156.54 686.02 1132.73 660.69 1104.73 635.6 1066.93 608.71 1006.56 530.33 973.86 472.74 981.43 447.36 1006.56 453.75 1032.75 480.25 1096.74 507.4 1233.38 536.61 1287.07 550.08 1329.89 538.05 1379.34 515.99 1392.67 480.25 1421.43 464.56 1429.99 426.08 1421.43 398.09" style="fill: rgb(239, 239, 239);"/>
      <polygon class="cls-9" points="1047.41 530.33 1099.4 587.38 1140.73 652.7 1167.39 712.68 1198.62 772.72 1233.38 810.48 1261.88 822.96 1288.13 822.76 1314.58 810.48 1329.89 795.2 1338.47 772.72 1338.47 750.01 1329.89 720.28 1314.58 686.02 1296.69 643.36 1245.18 581.53 1180.14 550.08 1067.35 514.06 1032.75 504.73 1047.41 530.33" style="fill: url(&quot;#Gradient_bez_nazwy_206&quot;);"/>
      <path d="M1054.29,238.68l3.43,36.38c30.83-54.23-20.81-122.7-79.88-91.06-61.64,33-17.9,136.23,51.19,100.62l-15.91-1.54c25.3-13.61,30.85-44.23,17.28-68.35-4.85-8.63-16.16-10.85-18.86-19.43,22.19,4.01,38.27,21.65,42.76,43.38ZM1002.66,232.77c-12.94,14.18-40.02-.59-27.52-19.51,13.77-20.84,41.67,4,27.52,19.51ZM818.63,1018.99s-.36-.05-.92-.11c.54.31.88.38.92.11ZM1313,286.24c41.18,3.97,91.09,4.04,118.02-31.85-39.42-22.42-64.17-55.19-82.93-95.77-18.11-39.16-21.82-77.7-50.99-111.72-36.29-42.34-94.56-57.74-147.71-39.09-10.53,3.7-33,20.3-36.46,21.1-4.83,1.11-12.17-2.84-18.37-2.83-61.68.09-105.45,1.17-163.38,25.13-9.36,3.87-39.17,22.43-44.31,22.92-6.17.59-57.34-19.43-73.58-21.98-37.17-5.83-84.84-3.15-118.88,14.32-107.62,55.23-78.96,200.46-185.39,258.04,58.09,49.99,156.68,36.23,196.2-30.24,28.49,34.41,86.74-8.87,89.73,53.1,2.36,48.85-8.67,111.84-11.53,162.23-6.12,108.11-2.24,238.87-27.74,342.34-2.42,9.83-66.29,298.47-74.79,302.44.39.73,109.52,7.37,119.97,8.66-6.74-3.83-45.1-84.21-41.99-119.97.65-7.52,23.02-157.89,25.5-167.82,11.42-45.67,9.8-73.88,17.75-130.01l19.58-371.27c12.5,14.7,14.87,30.91,28.61,46.33,9.34,10.47,26.68,25.56,41.53,25.47-21.44-20.2-39.23-49.21-51.59-76.02-12.9-27.97-15.29-60.54-44.92-79.5-29.72-19.01-50.71,4.99-73.3-15.13-32.74-29.16-.91-112.63,46.2-104.65,38.34,6.5,32.7,56.88,59.79,75.88,3.08-30.24,11.58-61.34,31.86-84.62l38.34-33.39c-49.13,11.81-92.74-16.29-142.07-12.91-60.3,4.14-95.93,50.49-109.92,105.39,31.74-46.11,66.63-82.39,126.04-86.15,6.37-.4-5.25-3.46-5.46,2.21-37.35-.6-63.3,38.18-72.57,72.97-5.54,20.79-1.75,39.46-9.6,60.58-17.52,47.1-82.95,72.57-127.7,50.89,70-55.86,57.04-154.42,122.68-212.24,43.86-38.63,93.59-40.56,148.46-27.06,13.61,3.35,53.34,21.95,61.93,20.79,7.25-.98,28.93-17.43,39-21.9,79.11-35.14,156.09-39.47,239.72-17.31,45.48,12.05,97.17,37.93,109.17,87.01-57.82-27.18-64.83,35.23-45.23,75.57,12.66,26.05,62.17,72.5,85.03,93.63,19.86,18.35,42.7,33.84,62.28,52.57-38.64.66-75.04,4.56-100.5,36.66l-1.61-12.74c-48.4,56.52,16.89,134.48,82.98,114.88-12.94,19.59-43.53,26.3-65.82,28.27-68.82,6.09-138.81-22.09-199.03-52.18-21.81-10.9-81.5-51.4-97.92-55.19-63.05-14.58-29.54,60.88-15.36,88.71,36.13,70.91,99.33,121.3,164.47,164.14l31.77,71.88c-56.78-46.49-109.98-97.32-161.12-149.9-23.01-23.66-18.65-21.61-46.28-39.87-28.88-19.09-52.29-37.27-76.48-62.26,15.56,34.27,44.51,63.91,70.13,90.97l-1.55,4.72c-7.86-5.33-16.59-9.61-25.56-12.73-4.25-1.47-9.22-6.56-7.93,1.54,25.88,27.69,53.24,56.77,74.6,88.13,51.71,75.94,84.69,334.29,116.95,419.69,5.47.81-6.31-169.2-6.58-172.71-3.45-44.47-14.01-89.13-16.04-133.94l3.29-36.8c12.52,90.89,46.46,176.64,86.17,258.4l-3.41-7.05c.41.33,3.47,7.7,3.88,7.97.29,0,6.92,15.67,7.29,15.67.89.15,17.15,37.4,18.02,37.52,16.63,2.29,42.7-16.3,59.48-16.41.05-.19-27.63-38.25-37.95-50.1-5.62-6.45-31.72-29.41-43-47.48-37.68-60.34-43.89-117.78-48.95-188.96,15.92,19.55,43.12,23.97,61.72,35.55,29.92,18.63,33.94,39.02,79.89,34.27,102.42-10.59,57.33-145.03,16.01-197.17l-52.35-76.82c46.14,6.21,107.61.31,142.07-35,11.04-11.32,14.55-26.65,21.61-37.43,5.75-8.78,14.7-8.12,21.5-27.92,26.82-78.11-78.72-123.64-121.37-172.46ZM1244.55,58c-14.93-4.22-18.65.71-28.19-.47-7.11-.88-39.03-14.95-54.93-18.58-15.47-3.53,10.11-11.71,16.16-12.52,140.73-18.8,118.29,140.19,189.62,213.53-6.53,6.1-37.94-37.97-40.92-43.59-24.92-47.13-20.02-120.93-81.75-138.36ZM1237.97,195.38c-14.73-13.23,9.55-35.05,23.18-21.59,12.87,12.72-7.61,35.57-23.18,21.59ZM1295.45,271.83l-27.12-25.42c37.01-10.6,30.26-65.9.01-84.6l12.78,1.58,1.52-6.33c32.2,25.39,30.37,81.03,12.81,114.76ZM1121.53,635.6c-47.4-24.43-132.01-108.04-124.4-164.36.59-4.35,1.85-9.57,6.35-4.73,11.1,57.14,62.78,98.8,98.85,142.06,2.94,3.53,21.43,24.6,19.2,27.03ZM1326.53,784.73c-5.61,13.94-32.04,26.84-46.59,26.16-80.48-3.8-112.04-129.95-144.27-187.79l-68.31-92.77c69.36,7.99,115.78,55.92,162.66,102.08.01-9.44-10.16-19.23-4.79-28.67,55.02,11.22,120.29,133.84,101.31,180.99ZM1332.16,477.69c-11.79,6.97-40.15-.8-41.48-17.56,13.74,15.36,42.61,20.99,41.48-6.38,10.37,2.73,6.2,20.28,0,23.94ZM1368.74,421.78c-16.32,3.19-23.38-6.01-35.07-6.57-16.18-.78-37.35,14.35-36.68,32.15-13.45-6.5-10.95-18.18-5.82-29.8,17.36-39.34,122.98-55.99,130.25,1.09-25.73-30.98-37.2.1-52.69,3.13ZM804.86,276.8l-28.66-41.44c-3.7,8.1,22.64,47.56,28.66,41.44ZM1245.18,720.28l28.65,82.93c-1.06-28.39-8.61-61.79-28.65-82.93Z"/>
      <path class="cls-8" d="M821.7,373.99s2.81,3.33,4.04,5.27c13.77,21.72,11.03,23.02,17.84,32.61.5.71,1.11,1.39,1.73,2.15,28.08,34.53,46.53,31.77,46.53,31.77h0c-30.47,4.49-31.85,23.65-32.32,31.8-8.97,154.66,17.52,372.58-33.09,522.64-10.69-53.6-59.62-61.97-59.62-61.97,0,0,20.73-103.9,24.51-136.77,18.35-159.4,23.48-296.76,30.38-427.5Z" style="fill: rgb(175, 175, 175);"/>
      <path class="cls-8" d="M930.17,589.29c59.76,65.17,98.85,100.18,141.32,239.21l56.37,249.67c-20.51-.07-30.61-6.88-51.13-6.91-42-154.54-21.45-218.92-80.08-350.99l-66.49-130.98Z" style="fill: rgb(175, 175, 175);"/>
      <path class="cls-10" d="M1127.87,1078.18c12.12,30.1-2.63,1.84-5.54-24.54.57-72.51-36.72-227.99-19.94-299.98,5.93,44.02,18.9,87.28,32.06,130.25,10.75,35.11,77.67,176.36,78.52,186.38.85,9.89-40.35,13.02-48.47,13.28-16.16.52-29.03-5.36-36.64-5.39h0Z" style="fill: rgb(123, 123, 123);"/>
      <path class="cls-3" d="M1464.07,1185.02c-6.6-32.39-14.91-63.06-23.34-93.28-5.06,1.08-10.2,2.09-15.42,2.99-255.7,44.33-598.21-70.36-852.46-167.05-15.39,58.87-36.54,111.87-48.56,170.44,267.13,74.89,662.6,164.62,939.78,86.9Z" style="fill: rgb(255, 255, 255); stroke: rgb(0, 0, 0); stroke-miterlimit: 10; stroke-width: 25px;"/>
      <polygon class="cls-5" points="380.12 936.86 428 852.65 456.81 862.43 597.11 936.86 551.53 1100.59 363.31 1027.81 346.24 1014.39 380.12 936.86" style="fill: rgb(255, 255, 255);"/>
      <g>
        <path class="cls-5" d="M548.9,939.03l-9,28.13-16.3,76.29,3.45,11.3c8.95-41.2,18.63-82.43,29.4-123.82l-7.56,8.11Z" style="fill: rgb(255, 255, 255);"/>
        <path class="cls-5" d="M850.98,982.35l-24.11-52.28-30.06-33.6-32.23-4.92-34.02-18.93-21.45-8.72-37.44-11.55-38.16,36.84-36.49,17.63-25.08,7.51-15.47,16.6c-10.77,41.39-23.9,54.15-32.85,95.35l21.51,87.6,24.4,14.05,22.66,47.32,26.66,18,14.43,8.17,39.16,4.31,31.06,17.51,30.93-16.42,25.33-51.65,31.22-3.19,45.29-33.93,17.75-67.05-3.03-68.64Z" style="fill: rgb(255, 255, 255);"/>
        <path d="M515.34,964.58c-7.81,29.43-9.26,35.54-12.17,57.77l-.25,30.71c1.33,25.66-.46,29.14,12.32,57.81,14.83-72.8,31.32-145.52,51.63-218.87,2-4,10-8,12-12,.48-.96.72-1.91.82-2.87-26.97,11.92-53.23,59.94-64.35,87.44"/>
        <path d="M877.06,1025.74c-.5-.09-.97-.19-1.47-.27-4.22-.7-2.83-9.14-2.13-13.37-.7,4.22-2.09,12.67,2.13,13.37.5.08.97.19,1.47.27-.02-.27-.03-.54-.04-.81-.96-.38-1.93-.8-2.92-1.29,2.82-42.6-9.95-114.17-55.11-131.49-11.9-4.56-44.97-5.81-49.39-9.85-2.03-1.86-.15-11.99-3.66-17.01-20.37-29.05-81.82-37.3-111.66-19.02-12.18,7.46-25.22,29.93-27.12,30.7-5.2,2.11-22.31-4.12-32.11-3.61-5.33.27-10.46,1.61-15.36,3.78-.1.96-.34,1.91-.82,2.87-2,4-10,8-12,12-20.31,73.36-36.8,146.07-51.63,218.87.74,1.65,1.53,3.31,2.42,4.97,15.44,28.79,45.95,26.35,51.06,32.21,2.08,2.38,1.52,43.29,18.32,59.6,20.23,19.64,41.58,7.43,58.67,12.91,13.75,4.41,21.8,26.2,46.33,30.19,55.52,9.03,61.54-59,73.18-65.74,1.62-.94,25.43,3.4,37.41.07,25.32-7.05,42.59-36.12,52.25-58.75,1.52-3.56,2.41-7.72,3.17-11.96-.68,1.1-1.32,2.2-2.05,3.3.73-1.1,1.37-2.2,2.05-3.3,2.01-11.26,3.1-23.03,12.33-25.67,6.83-19.72,8.23-40.13,6.67-62.97ZM823.4,1104.33c-9.39,21.28-24.66,44-51.18,35.55l21.38-129.3c-48.21,34.06-36.33,164.52-81.64,190.54-34.03,19.55-45.13-15.26-43.27-44.08,4.18-64.88,27.24-130.68,49.77-190.95-58.17,52.05-67.35,142.82-81.38,215.59-15.19-1.52-22.95-1.88-32.29-14.25-32.42-42.92,16.39-175.8,34.89-223.53-48.3,35.43-56.38,107.74-68.11,162.77-69.16-18.6-14.05-188.2,30.25-190.98,9.8-.61,26.81,5.76,32.11,3.62,8.95-3.63,20.32-47.07,65.18-43.66,50.7,3.86,46.41,45.53,56.51,50.29,5.08,2.39,24.16-1.28,35.67,1.55,58.72,14.46,51.1,133.81,32.13,176.82Z"/>
      </g>
      <g>
        <polygon class="cls-5" points="1499.89 977.59 1445.81 950.99 1406.74 917.87 1356.01 905.53 1328.19 921.89 1302.83 947.96 1271.02 939.24 1214.8 962.14 1197.8 1034.42 1196.5 1100.27 1199.51 1159.13 1224.08 1195.91 1263.7 1213.5 1286.69 1219.41 1301.6 1250.01 1325.76 1278.81 1363.4 1270.88 1376.31 1260.21 1411.05 1263.1 1447.84 1251.6 1456.87 1219.38 1487.08 1209.82 1514.19 1191.75 1538.53 1149.94 1533 1041.96 1499.89 977.59" style="fill: rgb(255, 255, 255);"/>
        <path d="M1177.26,1075.35l-1.15.06c.04.17.07.33.11.5,2.35,18.16,5.7,39.18,9.64,56.33.73,8.44,1.04,16.89.63,25.39.41-8.5.1-16.95-.63-25.39-.14,2.03-.37,4.04-.67,6.03h.12c-1.84,31.84,11.63,70.26,41.86,84.77,12.46,5.98,43.02,8.13,49.14,12.32,7.64,5.22,13.7,49.94,42.18,62.93,35.13,16.02,47.9-16.4,62.43-20,6.51-1.61,30.16,13.06,56.32,3.45,23.92-8.79,30.82-46.46,34.19-48.74,4.1-2.78,18.22-.94,26.48-4.09,25.39-9.69,37.47-22.79,46.42-48.51,4.38-12.6,6.25-44.67,11.88-53.76l.99-1.37c.16-.17.97-35.42,1.14-35.55-1.08-21.2-.66-12.82-4.08-32.34-.09-.51-.05-1.03-.08-1.55l-1.83.09c-10.41-42.63-27.99-99.72-70.76-114.73-11.36-3.99-30.73-2.44-38.46-7.48-4.33-2.82-8.12-14.84-14.12-20.13-27.9-24.61-71.75-32.9-105.31-14.11-8.67,4.85-15.49,17.7-21.55,19.46-6.95,2.03-28.78-3.78-44.02-1.15-16.18,2.79-26.31,12.37-39.84,19.69-.27-.04-.55-.17-.82-.28-.53,1.12-1.06,2.24-1.59,3.38.74-1.05,1.47-2.11,2.22-3.14-.74,1.03-1.48,2.09-2.22,3.14-6.98,14.8-14.88,30.86-24.47,43.79-.37.95-.77,1.89-1.12,2.85-6.16,24.43-14.31,46.75-13.38,85.5l.37,2.65M1254.55,961.91c33.49-19.78,51.74,9.13,59.78,6.82,11.94-3.43,24.82-64.69,80.2-31.23,15.39,9.3,35.68,43.09,40.54,45.51,2.96,1.48,19.59-4.54,29.1-3.65,51.43,4.8,66.53,150.29,45.93,187.38-5.14,9.25-16.56,21.32-28.21,19.73l-3.81-74.47c-.66-12.87-20.35-60.62-27.71-74.22-4.8-8.87-14.65-23.58-22.81-29.5,18.02,47.42,46.89,195.09,2.9,228.6-8.02,6.11-29.5,12.08-35.78,3.26-2.68-3.76,1.21-75.87-.57-92.35-3.2-29.64-12.74-69.61-24.27-97.11-3.42-8.15-10.92-25.01-18.55-29.45,10.06,60.1,26.03,120.34,17.8,181.83-10.62,79.28-57.16,66.36-67.55-5.17-7.82-53.88.03-95.66-24.66-149.35-3.11-6.76,2.01-12.28-10.69-9.39l7.39,144.42c-28.46,8.07-49.65-15.95-55.32-41.25-10.18-45.43-9.28-153.46,36.29-180.38Z"/>
      </g>
      <g/>
      <path d="M432.28,867.25l-73.35,150.05,187.26,74.87c6.64,3.25-16.24,23.7-37.16,16.42-53.57-24.99-108.28-36.8-159.74-69.93-6.97-4.49-15.98-13.87-14.57-22.86l77.96-162.06c6.45-11.53,19.65-11.08,30.53-7.25,18.97,6.67,117.06,55.86,131.42,66.67,12.45,9.38-4.68,21.38-12.03,17.78l-130.32-63.7Z"/>
      <path class="cls-5" d="M75.65,769.84l279.31,138.59c2.02,6.5,1.11,11.48-6.27,12.76l-279.98-135.16c-43.29,47.19-101.06-31.64-46.48-58.56,28.42-14.02,60.69,12.27,53.42,42.37ZM19.17,758.55c-5.67,21.92,28.59,33.66,38.04,11.78,10.87-25.15-30.17-42.2-38.04-11.78Z" style="fill: rgb(255, 255, 255);"/>
      <path class="cls-5" d="M90.03,923.17c-2.48,1.87,2.52,33.61-27.75,42.7-56.65,17.02-67.74-73.62-12.57-74.66,22.76-.43,23.66,12.65,32.84,15.55,4.01,1.27,69.48-6.74,83.95-6.41,37.02.86,80.65,6.75,115.92,18.04,8.88,2.84,75.96,23.16,52.02,37.28-8.32,4.91-28.04-9.74-37.16-13.02-52.23-18.79-108.22-26.2-163.44-23.25-5.52.29-42.07,2.44-43.82,3.76ZM57.15,949.03c24.19-7.24,14.72-44.98-11.46-39.08-25.19,5.67-14.72,46.92,11.46,39.08Z" style="fill: rgb(255, 255, 255);"/>
      <path class="cls-5" d="M373.45,875.3c1.84,4.87-4.32,11.73-9.08,11.61-12.2-.32-57.7-32.33-69.56-41.42-34.07-26.11-62.86-59.39-87.98-93.89-5.81-7.98-21.82-38.61-26.04-42.1-11.34-9.36-30.37-1.98-39.1-29.59-15.11-47.78,60.18-71.03,73.79-21.42,7.14,26.01-17.38,41.94-17.34,45.05.03,2.56,22.32,35.95,25.82,40.87,26.44,37.15,61.37,73.15,98.89,99.29,7.62,5.31,49.17,27.79,50.61,31.6ZM158.94,663.48c-7.18,24.96,33.19,37,39.67,8.64,4.94-21.63-32.17-34.71-39.67-8.64Z" style="fill: rgb(255, 255, 255);"/>
      <path class="cls-5" d="M169.23,974.85c1.83-.01,26.38-12.13,33.67-14.12,30.88-8.43,76.67-7.99,106.31,5.29,7,3.13,22.99,11.57,10.68,19.45-6.25,4-37.09-8.47-48.07-10.44-17.8-3.19-41.81-2.25-59.39,2.03-4.35,1.06-28.06,8.52-28.03,11.47.01,1.1,7.27,10.87,6.93,20.5-1.67,47.44-66.49,50.76-75.46,8.93-5.71-26.65,13.58-47.15,39.59-47.01,5.53.03,10.52,3.93,13.77,3.91ZM133.09,1006.83c-3.61,16.45,20.94,30.4,32.89,17.57,25.23-27.1-25.08-53.18-32.89-17.57Z" style="fill: rgb(255, 255, 255);"/>
      <path class="cls-5" d="M289.52,725.1c-1.62-1.9-18.59-.36-29.14-16.72-30.8-47.8,57.3-88.71,65.78-30.42,4.25,29.22-18.21,35.37-19.93,43.43-.59,2.76,6.35,26.83,8.03,31.2,10.27,26.73,28.21,48.28,50.21,66.36,7.54,6.2,28.26,14.09,26.64,23.62-2.59,15.28-21.04,2.11-28.02-2.25-26.47-16.53-49.33-44.59-61.84-72.82-3.75-8.46-10.3-40.73-11.73-42.41ZM294.89,705.51c18.88-7.37,18.24-39.89-4.7-38.43-23.87,1.52-21.72,48.74,4.7,38.43Z" style="fill: rgb(255, 255, 255);"/>
      <path d="M464.94,1031.37c2.21,5.31-2.06,10.93-8.75,9.53-22.84-4.78-53.95-25.99-77.81-32.32-4.57-3.36-2.56-10.3,2.51-11.8,4.39-1.3,82.28,30.38,84.04,34.6Z"/>
      <path d="M472.62,1044.71c2.76-12.14,28.9-.8,25.85,8.36-3.22,9.68-27.75.01-25.85-8.36Z"/>
      <path class="cls-8" d="M1050.65,54.76c13.05.31,14.11,17.66,14.28,26.92.22,1.19.22,3.22,0,4.41-1.63,8.98-2.26,13.12-13.22,13.22-45.44-15.13-106.28,17.82-123.34,61.66,41.36-31.48,97.83-76.57,145.37-26.41,40.15,42.36,38.03,223.48-26.32,240.22-24.34,6.33-37.93-2.63-57.39-2.3-45.85.76-64.4,31.24-61.68,74.9-6.52-7.17-21.69-13-32.66-26.82-22.57-28.45-37.68-71.86-55.46-94.3-5.14-6.48-8.85,11-11.71,12.04-8.61-17.62-14.71-48.43-35.1-57.8-19.72-9.06-32.97-1.97-50.11-4.96,1.94-12.7-13.34-9.63-16.78-20.64-9.72-31.13,17.36-80.46,50.2-59.02,6.24,4.07,38.62,56.43,52.52,57.6,4.39.37,1.46-13.25,2.18-17.6,3.46-20.97,6.97-25.98,13.22-44.06,15.32-37.19,36.61-42.72,46.52-57.31,4.73-6.96,11.41-7.38,7.06-6.15-8.75,2.46-26.06,5.54-36.11,3.96-27.24-4.26-33.24-16.56-86.27-20.72-62.01-4.86-93.88,19.98-123.66,83.15-44.61,78.71-76.05,103.61-94.95,127.36,104.65-116.83,52.68-248.63,242.79-244.27,28.61.66,63.52,16.87,91.53,26.61,12.33,4.28,19.9-21.34,82.7-37.54,34.96-11.29,66.77-15.14,76.4-12.15ZM1056.31,281.54c57.47-109.47-108.04-162.36-110.33-41.25-.39,20.73,14.82,51.7,48.47,59.34,6.51,1.49,5.32,1.22,13.2,1.46,18.77.58,43.82-10.32,48.66-19.55Z" style="fill: rgb(175, 175, 175);"/>
      <g/>
    </g>
  </g>
</svg>