<?xml version="1.0" encoding="UTF-8" standalone="no"?>
<!DOCTYPE svg PUBLIC "-//W3C//DTD SVG 1.1//EN" "http://www.w3.org/Graphics/SVG/1.1/DTD/svg11.dtd">
<svg width="100%" height="100%" viewBox="0 0 2048 600" version="1.1" xmlns="http://www.w3.org/2000/svg" xmlns:xlink="http://www.w3.org/1999/xlink" xml:space="preserve" xmlns:serif="http://www.serif.com/" style="fill-rule:evenodd;clip-rule:evenodd;stroke-linejoin:round;stroke-miterlimit:2;">
    <g transform="matrix(1.05581,0,0,1.05581,-33.0328,-54.5702)">
        <g transform="matrix(0.442305,0,0,0.442305,27.3631,39.7147)">
            <g transform="matrix(1.66198,0,0,1.66198,-229.422,-370.282)">
                <path d="M165.154,822.479L412.214,272.938L513.008,272.938L760.755,822.479L653.95,822.479L441.666,327.377L482.452,327.377L270.168,822.479L165.154,822.479Z" style="fill:rgb(48,134,165);fill-rule:nonzero;"/>
            </g>
            <path d="M397.006,582.02C411.821,581.155 425.984,582.378 442.355,584.042C491.673,589.057 529.969,604.466 566.077,623.121C603.276,642.339 636.732,667.231 688.94,675.849C726.61,682.067 752.842,686.109 776.414,679.577C798.134,673.559 815.9,657.748 840.564,632.423L889.403,582.276L989.698,679.954L940.859,730.101C893.606,778.619 855.412,802.962 813.801,814.493C774.046,825.51 729.671,824.466 666.14,813.98C617.111,805.887 579.269,788.985 544.072,770.29C508.189,751.229 476.835,728.27 428.193,723.324C375.175,717.933 338.724,740.137 321.622,754.427L334.514,721.095L397.006,582.02Z" style="fill:url(#_Linear1);"/>
        </g>
        <g transform="matrix(5.72804,0,0,5.7264,-2119.59,-456.3)">
            <g transform="matrix(100,0,0,100,456.508,163.551)">
                <path d="M0.082,-0L0.082,-0.534L0.201,-0.534L0.201,-0.387L0.187,-0.43C0.203,-0.466 0.228,-0.494 0.263,-0.512C0.297,-0.531 0.34,-0.54 0.391,-0.54L0.391,-0.421C0.385,-0.422 0.38,-0.423 0.376,-0.423C0.371,-0.424 0.367,-0.424 0.362,-0.424C0.315,-0.424 0.277,-0.41 0.249,-0.382C0.221,-0.355 0.207,-0.314 0.207,-0.259L0.207,-0L0.082,-0Z" style="fill:rgb(48,134,165);fill-rule:nonzero;"/>
            </g>
            <g transform="matrix(100,0,0,100,496.908,163.551)">
                <path d="M0.082,-0L0.082,-0.534L0.201,-0.534L0.201,-0.387L0.187,-0.43C0.203,-0.466 0.228,-0.494 0.263,-0.512C0.297,-0.531 0.34,-0.54 0.391,-0.54L0.391,-0.421C0.385,-0.422 0.38,-0.423 0.376,-0.423C0.371,-0.424 0.367,-0.424 0.362,-0.424C0.315,-0.424 0.277,-0.41 0.249,-0.382C0.221,-0.355 0.207,-0.314 0.207,-0.259L0.207,-0L0.082,-0Z" style="fill:rgb(48,134,165);fill-rule:nonzero;"/>
            </g>
            <g transform="matrix(100,0,0,100,536.808,163.551)">
                <path d="M0.322,0.007C0.268,0.007 0.219,-0.005 0.176,-0.029C0.133,-0.052 0.099,-0.085 0.075,-0.126C0.05,-0.167 0.038,-0.214 0.038,-0.267C0.038,-0.321 0.05,-0.368 0.075,-0.409C0.1,-0.45 0.133,-0.482 0.176,-0.505C0.219,-0.529 0.267,-0.54 0.322,-0.54C0.377,-0.54 0.427,-0.529 0.47,-0.505C0.512,-0.482 0.546,-0.45 0.571,-0.409C0.595,-0.368 0.607,-0.321 0.607,-0.267C0.607,-0.214 0.595,-0.167 0.571,-0.126C0.546,-0.084 0.513,-0.052 0.469,-0.029C0.426,-0.005 0.377,0.007 0.322,0.007ZM0.322,-0.1C0.353,-0.1 0.38,-0.107 0.404,-0.12C0.428,-0.134 0.447,-0.153 0.46,-0.178C0.474,-0.204 0.481,-0.233 0.481,-0.267C0.481,-0.302 0.474,-0.331 0.46,-0.356C0.447,-0.381 0.428,-0.4 0.404,-0.414C0.38,-0.427 0.353,-0.434 0.323,-0.434C0.293,-0.434 0.266,-0.427 0.242,-0.414C0.218,-0.4 0.199,-0.381 0.185,-0.356C0.171,-0.331 0.164,-0.302 0.164,-0.267C0.164,-0.233 0.171,-0.204 0.185,-0.178C0.199,-0.153 0.218,-0.134 0.242,-0.12C0.265,-0.107 0.292,-0.1 0.322,-0.1Z" style="fill:rgb(48,134,165);fill-rule:nonzero;"/>
            </g>
            <g transform="matrix(100,0,0,100,598.208,163.551)">
                <path d="M0.126,0.201C0.1,0.201 0.074,0.196 0.048,0.188C0.022,0.179 0.001,0.167 -0.017,0.152L0.033,0.06C0.045,0.072 0.06,0.081 0.076,0.087C0.092,0.094 0.108,0.097 0.125,0.097C0.147,0.097 0.166,0.091 0.18,0.08C0.194,0.069 0.207,0.05 0.219,0.023L0.25,-0.047L0.26,-0.062L0.462,-0.534L0.582,-0.534L0.332,0.043C0.316,0.083 0.297,0.115 0.277,0.138C0.256,0.161 0.233,0.177 0.209,0.187C0.184,0.196 0.156,0.201 0.126,0.201ZM0.236,0.019L-0.005,-0.534L0.125,-0.534L0.321,-0.073L0.236,0.019Z" style="fill:rgb(48,134,165);fill-rule:nonzero;"/>
            </g>
            <g transform="matrix(100,0,0,100,650.608,163.551)">
                <path d="M0.322,0.007C0.268,0.007 0.219,-0.005 0.176,-0.029C0.133,-0.052 0.099,-0.085 0.075,-0.126C0.05,-0.167 0.038,-0.214 0.038,-0.267C0.038,-0.321 0.05,-0.368 0.075,-0.409C0.1,-0.45 0.133,-0.482 0.176,-0.505C0.219,-0.529 0.267,-0.54 0.322,-0.54C0.377,-0.54 0.427,-0.529 0.47,-0.505C0.512,-0.482 0.546,-0.45 0.571,-0.409C0.595,-0.368 0.607,-0.321 0.607,-0.267C0.607,-0.214 0.595,-0.167 0.571,-0.126C0.546,-0.084 0.513,-0.052 0.469,-0.029C0.426,-0.005 0.377,0.007 0.322,0.007ZM0.322,-0.1C0.353,-0.1 0.38,-0.107 0.404,-0.12C0.428,-0.134 0.447,-0.153 0.46,-0.178C0.474,-0.204 0.481,-0.233 0.481,-0.267C0.481,-0.302 0.474,-0.331 0.46,-0.356C0.447,-0.381 0.428,-0.4 0.404,-0.414C0.38,-0.427 0.353,-0.434 0.323,-0.434C0.293,-0.434 0.266,-0.427 0.242,-0.414C0.218,-0.4 0.199,-0.381 0.185,-0.356C0.171,-0.331 0.164,-0.302 0.164,-0.267C0.164,-0.233 0.171,-0.204 0.185,-0.178C0.199,-0.153 0.218,-0.134 0.242,-0.12C0.265,-0.107 0.292,-0.1 0.322,-0.1Z" style="fill:rgb(48,134,165);fill-rule:nonzero;"/>
            </g>
        </g>
    </g>
    <defs>
        <linearGradient id="_Linear1" x1="0" y1="0" x2="1" y2="0" gradientUnits="userSpaceOnUse" gradientTransform="matrix(599.961,21.7826,-7.83868,215.902,404.71,666.863)"><stop offset="0" style="stop-color:rgb(48,134,165);stop-opacity:1"/><stop offset="0.67" style="stop-color:rgb(93,161,160);stop-opacity:1"/><stop offset="1" style="stop-color:rgb(138,200,180);stop-opacity:1"/></linearGradient>
    </defs>
</svg>
