<?xml version="1.0" encoding="UTF-8"?><svg id="Layer_1" xmlns="http://www.w3.org/2000/svg" viewBox="0 0 400 400"><defs><style>.cls-1{fill:none;}.cls-1,.cls-2,.cls-3,.cls-4{stroke-width:0px;}.cls-2{fill:#2c7a96;}.cls-3{fill:#3aa4ca;}.cls-4{fill:#7cbbd2;}</style></defs><path class="cls-1" d="m385.07,124.08c-10.27-25-25.44-47.46-44.34-66.17-105.69-23.77-211.37,108.08-317.06,47.64-8.29,15.44-14.62,32.1-18.63,49.64,126.81,96.74,253.23-116.36,380.03-31.11Z"/><path class="cls-1" d="m376.25,294.59c7.51-13.97,13.42-28.94,17.46-44.66-124.92-96.78-249.84,108.85-374.76,35.15,9.89,21,23.31,40.01,39.51,56.24,105.93,22.46,211.85-109.89,317.78-46.73Z"/><path class="cls-1" d="m243.28,395.29c11.07-2.44,21.79-5.8,32.08-9.99-10.69,2.59-21.39,6.04-32.08,9.99Z"/><path class="cls-2" d="m340.73,57.9C304.59,22.11,254.88,0,200,0,123.71,0,57.4,42.72,23.67,105.55c105.69,60.44,211.37-71.42,317.06-47.64Z"/><path class="cls-3" d="m393.72,249.93c4.1-15.96,6.28-32.69,6.28-49.93,0-25.82-3.38-51.64-13.63-73.27-.07-.14-.13-.28-.2-.42-.7-1.47-1.8-2.72-3.16-3.61-.12-.08-.23-.15-.35-.23C259.45,41.95,131.03,251.31,5.04,155.19c-3.3,14.41-5.04,29.4-5.04,44.81,0,30.09,6.66,58.63,18.56,84.23.13.28.89,1.14,1.14,1.28,124.67,72.45,249.34-132.17,374.02-35.58Z"/><path class="cls-4" d="m376.25,294.59c-105.93-63.17-211.85,69.19-317.78,46.73,36.2,36.26,86.24,58.69,141.53,58.69,14.86,0,29.34-1.64,43.28-4.71,10.69-3.95,21.39-7.4,32.08-9.99,43.25-17.61,78.95-49.91,100.9-90.71Z"/></svg>