<svg xmlns="http://www.w3.org/2000/svg" xml:space="preserve" style="enable-background:new 0 0 50 50" viewBox="0 0 50 50"><path d="M23.2 41.5h-13c-.9 0-1.7-.7-1.7-1.7V27.2h.1c8 0 14.4 6.4 14.6 14.3zm10.4 0H28c-.1-10.7-8.8-19.3-19.5-19.3v-5.4h.1c13.7 0 24.9 11.1 25 24.7zm6.2 0h-1.3c-.1-16.4-13.5-29.7-30-29.7v-1.6c0-.9.7-1.7 1.7-1.7h10.5c9.5 3.4 17.1 10.7 20.8 19.9v11.4c0 1-.7 1.7-1.7 1.7zm-8.3-33h8.4c.9 0 1.6.7 1.6 1.6v8.1c-1.3-1.7-2.8-3.6-4.3-5.2-1.8-1.6-3.8-3.1-5.7-4.5z" style="fill:#fff"/></svg>