<svg xmlns="http://www.w3.org/2000/svg" xml:space="preserve" style="enable-background:new 0 0 100 100" viewBox="0 0 100 100"><path d="M15.5 92.3c.4.4.9.7 1.5.7h55c1.1 0 1.9-.9 1.9-1.9v-.4L69 65.2v-.1c0-.3-.1-.6-.2-.8l-3.4-17.7 6.5-6.5c1.1.6 2.3 1 3.5 1 4 0 7.2-3.2 7.2-7.2 0-1.2-.3-2.5-1-3.5l2.8-2.8c.8-.8.7-2 0-2.7-.8-.7-2-.7-2.7 0l-2.8 2.8c-1.1-.6-2.3-1-3.5-1-4 0-7.2 3.2-7.2 7.2 0 1.2.4 2.5 1 3.6L64.5 42 58 8.6c-.2-.9-1-1.6-1.9-1.6H32.8c-.9 0-1.7.7-1.9 1.6L20.2 64.2c-.2.3-.2.6-.2.9v.1l-4.9 25.5c-.1.6 0 1.2.4 1.6zm59.9-61.9c.9 0 1.8.3 2.3 1l.2.2c.6.6.8 1.4.8 2.2 0 1.9-1.5 3.4-3.4 3.4-.9 0-1.8-.3-2.3-1l-.2-.2c-.6-.6-.8-1.4-.8-2.2 0-1.9 1.5-3.4 3.4-3.4zM64.6 63.1H50.7v-1.8l11.4-11.5 2.5 13.3zm-40.3 0 8.6-44.9h5.3v44.9H24.3zm17.8-27.4h4.8v5.4h-4.8v-5.4zm4.7-3.8H42v-5.4h4.8v5.4zM42.1 45h4.8v5.4h-4.8V45zm4.7-22.4H42v-4.4h4.8v4.4zm-4.7 31.6h4.8v5.5l-3.3 3.4h-1.5v-8.9zm8.6 1.7V18.2H56l5.2 27.1-10.5 10.6zm3.9-45 .7 3.5H33.7l.7-3.5h20.2zM23.6 67h41.8l4.3 22.1H19.3L23.6 67z" style="fill:#fff;stroke:#fff;stroke-miterlimit:10"/></svg>