<svg xmlns="http://www.w3.org/2000/svg" xml:space="preserve" id="Layer_1" x="0" y="0" style="enable-background:new 0 0 1000 1000" version="1.1" viewBox="0 0 1000 1000"><style>.st0{stroke:#fff;stroke-width:2;stroke-miterlimit:10}.st0,.st1{fill:#fff}</style><path d="M622.5 612.6c-4.1-4.4-11.1-4.5-15.4-.4-29 27.7-67 42.9-107.1 42.9s-78.1-15.2-107.1-42.9c-4.3-4.1-11.2-4-15.4.4-4.1 4.3-4 11.2.4 15.4 33 31.5 76.4 48.9 122.1 48.9s89.1-17.4 122.1-48.9c4.4-4.1 4.6-11 .4-15.4zM500 323.1c-97.6 0-176.9 79.4-176.9 176.9 0 19 3 37.8 8.9 55.7 1.5 4.6 5.8 7.5 10.3 7.5 1.1 0 2.3-.2 3.4-.6 5.7-1.9 8.8-8 6.9-13.8-5.2-15.7-7.8-32.1-7.8-48.8 0-85.5 69.6-155.2 155.2-155.2 85.5 0 155.2 69.6 155.2 155.2 0 16.2-2.5 32.2-7.4 47.5-1.8 5.7 1.3 11.9 7 13.7 5.7 1.8 11.9-1.3 13.7-7 5.6-17.5 8.4-35.7 8.4-54.1.1-97.7-79.3-177-176.9-177z" class="st0"/><path d="M737.6 594.4c-2.7-1.1-6 .1-7.1 2.9-39.3 92.8-129.7 152.8-230.5 152.8s-191.2-60-230.4-152.8c-1.2-2.8-4.4-4-7.1-2.9-2.8 1.2-4.1 4.4-2.9 7.1C300.5 698.4 394.9 761 500 761s199.5-62.6 240.5-159.4c1.2-2.8-.1-6-2.9-7.2z" class="st1"/><path d="M317.1 599.9c-1.4-2.6-4.8-3.6-7.4-2.2-2.6 1.4-3.6 4.8-2.2 7.4 2.9 5.2 5.9 10.3 9.2 15.2 1 1.6 2.8 2.5 4.6 2.5 1 0 2.1-.3 3-.9 2.5-1.6 3.2-5 1.6-7.5-3.1-4.7-6-9.6-8.8-14.5zM336.2 628.7c-1.9-2.4-5.3-2.8-7.6-.9-2.4 1.9-2.8 5.3-.9 7.6 19.6 25 44.9 45.7 73.1 60.1.8.4 1.6.6 2.5.6 2 0 3.9-1.1 4.8-3 1.4-2.7.3-6-2.4-7.3-26.8-13.6-50.9-33.4-69.5-57.1zM460.3 704.6c-2.8-.5-5.8 1.4-6.4 4.3-.6 3 1.4 5.8 4.3 6.4 7.3 1.4 14.9 2.5 22.5 3.1h.5c2.8 0 5.2-2.1 5.4-5 .3-3-2-5.6-4.9-5.9-7.3-.6-14.4-1.6-21.4-2.9zM596 685c-29.4 15.3-62.6 23.4-96 23.4-3 0-5.4 2.4-5.4 5.4s2.4 5.4 5.4 5.4c35.1 0 70.1-8.5 101-24.6 2.7-1.4 3.7-4.7 2.3-7.3-1.3-2.7-4.6-3.7-7.3-2.3zM654.8 655.3c14.4-14.4 26.7-30.6 36.6-48.3 1.5-2.6.5-5.9-2.1-7.4s-5.9-.6-7.4 2.1c-9.4 16.8-21.1 32.2-34.8 45.9-2.1 2.1-2.1 5.6 0 7.7 1.1 1.1 2.5 1.6 3.9 1.6 1.4-.1 2.8-.6 3.8-1.6z" class="st1"/><path d="M897.4 448.5c-51.5-15.8-115.7-35.4-163.2-89.3C686 304.3 606.2 239 500 239s-186 65.3-234.2 120.1c-47.5 54-111.7 73.6-163.2 89.3C59.2 461.7 25 472.2 25 500c0 62.1 244.7 95.5 475 95.5S975 562 975 500c0-27.8-34.2-38.3-77.6-51.5zM500 584.7c-277.6 0-464.1-43.8-464.1-84.7 0-19.7 29.3-28.7 69.9-41.1 50.1-15.3 118.6-36.3 168.2-92.6 46.8-53.1 123.9-116.4 226-116.4s179.3 63.3 226 116.4c49.6 56.3 118.1 77.3 168.2 92.6 40.6 12.4 69.9 21.4 69.9 41.1 0 40.9-186.5 84.7-464.1 84.7z" style="fill:#fff;stroke:#fff;stroke-width:3;stroke-miterlimit:10"/><path d="M282.9 405.1c-35.5 28.3-77.4 41.2-111.2 51.5-36.1 11.1-64.7 19.8-64.7 43.4 0 3 2.4 5.4 5.4 5.4 3 0 5.4-2.4 5.4-5.4 0-15.6 23.9-22.9 57-33 34.6-10.6 77.6-23.8 114.7-53.4 2.4-1.9 2.7-5.3.9-7.6-1.7-2.4-5.1-2.8-7.5-.9zM419.3 311.4c2.8-1.2 4.1-4.4 2.9-7.1-1.2-2.8-4.4-4-7.1-2.9C376 318 339.3 345.5 306 383.2c-2 2.3-1.8 5.7.5 7.7 1 .9 2.3 1.4 3.6 1.4 1.5 0 3-.6 4.1-1.9 32.1-36.6 67.5-63.1 105.1-79zM500 294.6c9.7 0 19.5.7 29.1 2.1.3 0 .5.1.8.1 2.6 0 5-1.9 5.4-4.6.4-3-1.6-5.7-4.6-6.2-10.1-1.5-20.4-2.2-30.7-2.2-3 0-5.4 2.4-5.4 5.4 0 3 2.4 5.4 5.4 5.4zM557.2 302.9c30.4 8.9 59.9 25 87.8 47.8 1 .8 2.2 1.2 3.4 1.2 1.6 0 3.1-.7 4.2-2 1.9-2.3 1.6-5.8-.8-7.7-29-23.7-59.8-40.4-91.6-49.8-2.9-.8-5.9.8-6.8 3.7-.7 3 .9 6 3.8 6.8zM828.3 456.6c-7.2-2.2-14.7-4.5-22.5-7.1-2.9-.9-5.9.6-6.9 3.5-.9 2.9.6 5.9 3.5 6.9 7.9 2.6 15.5 4.9 22.8 7.1 33.1 10.1 56.9 17.4 56.9 33 0 9.1-14.5 19.8-39.8 29.1-2.8 1-4.3 4.2-3.2 7 .8 2.2 2.9 3.5 5.1 3.5.6 0 1.3-.1 1.9-.3 31.6-11.7 46.9-24.5 46.9-39.3-.1-23.6-28.6-32.4-64.7-43.4z" class="st1"/></svg>