<svg xmlns="http://www.w3.org/2000/svg" viewBox="0 0 100 100"><path d="M90.23 41.14c-.33-.38-.8-.6-1.3-.6h-3.57V21.29a2.39 2.39 0 0 0-2.39-2.39H41.5l-3.36-5.6a2.387 2.387 0 0 0-2.05-1.16H17.43a2.39 2.39 0 0 0-2.39 2.39v26h-3.69c-.5 0-.98.22-1.3.6-.33.38-.47.88-.4 1.38L16.3 86.4c.13.85.85 1.46 1.7 1.46h64.27c.85 0 1.57-.61 1.7-1.46l6.65-43.88c.08-.5-.07-1-.39-1.38ZM17.75 14.85h18.16l3.36 5.6c.43.72 1.21 1.16 2.05 1.16h41.33v18.93H81.3v-5.41h-1.35v-4.06H78.6v-4.06H21.8v4.06h-1.35v4.06H19.1v5.41h-1.35V14.85Zm4.06 22.99H78.6v2.7H21.8v-2.7Zm1.35-4.06h54.09v1.35H23.16v-1.35Zm52.73-2.7H24.51v-1.35h51.38v1.35Zm5.54 54.09H18.85L12.5 43.25h75.28l-6.35 41.92Z" style="fill:#fff;stroke-width:0"/></svg>