<?xml version="1.0" encoding="iso-8859-1"?>
<svg fill="#FFFFFF" height="800px" width="800px" version="1.1" id="Capa_1" xmlns="http://www.w3.org/2000/svg" xmlns:xlink="http://www.w3.org/1999/xlink" 
	 viewBox="0 0 59.911 59.911" xml:space="preserve">
<g>
	<path d="M59.605,23.399c-0.241-0.281-0.593-0.443-0.965-0.443H56V8.723c0-0.975-0.793-1.768-1.768-1.768H23.566l-2.485-4.141
		c-0.317-0.53-0.898-0.859-1.516-0.859H5.767C4.793,1.956,4,2.749,4,3.723v19.232H1.271c-0.37,0-0.722,0.161-0.963,0.441
		c-0.242,0.28-0.35,0.651-0.294,1.02l4.918,32.461c0.097,0.625,0.625,1.078,1.256,1.078h47.534c0.632,0,1.16-0.453,1.257-1.081
		l4.917-32.454C59.953,24.053,59.847,23.681,59.605,23.399z M6,3.956h13.434l2.485,4.141c0.317,0.53,0.898,0.859,1.516,0.859H54v14
		h-1v-4h-1v-3h-1v-3H9v3H8v3H7v4H6V3.956z M9,20.956h42v2H9V20.956z M10,17.956h40v1H10V17.956z M49,15.956H11v-1h38V15.956z
		 M53.096,55.956H6.815l-4.696-31H4h3h46h3h1.793L53.096,55.956z"/>
	<path d="M26.956,50.956h21v-14h-21V50.956z M28.956,38.956h17v10h-17V38.956z"/>
	<path d="M31.956,42.956h4c0.553,0,1-0.447,1-1s-0.447-1-1-1h-4c-0.553,0-1,0.447-1,1S31.403,42.956,31.956,42.956z"/>
	<path d="M39.956,42.956h1c0.553,0,1-0.447,1-1s-0.447-1-1-1h-1c-0.553,0-1,0.447-1,1S39.403,42.956,39.956,42.956z"/>
	<path d="M42.956,44.956h-11c-0.553,0-1,0.447-1,1s0.447,1,1,1h11c0.553,0,1-0.447,1-1S43.509,44.956,42.956,44.956z"/>
</g>
</svg>
