<svg xmlns="http://www.w3.org/2000/svg" xml:space="preserve" style="enable-background:new 0 0 100 100" viewBox="0 0 100 100"><path d="M67.4 58c.3-2.6.6-5.3.6-8s-.2-5.4-.6-8H81c.6 2.6 1 5.2 1 8 0 2.7-.4 5.4-1 8M60.4 80.2c2.4-4.4 4.2-9.2 5.5-14.2h11.8c-3.9 6.7-10 11.7-17.3 14.2m-1-22.2H40.6c-.4-2.6-.6-5.3-.6-8s.2-5.4.6-8h18.7c.4 2.6.6 5.3.6 8s-.2 5.4-.5 8M50 81.8C46.7 77 44 71.7 42.4 66h15.3C56 71.7 53.3 77 50 81.8M34 34H22.3c3.8-6.7 10-11.8 17.3-14.2C37.2 24.2 35.4 29 34 34M22.3 66H34c1.4 5 3.2 9.8 5.6 14.2-7.3-2.5-13.4-7.5-17.3-14.2M19 58c-.7-2.6-1-5.3-1-8 0-2.8.4-5.4 1-8h13.5c-.3 2.6-.6 5.3-.6 8s.2 5.4.6 8M50 18.1c3.3 4.8 6 10.2 7.6 15.9H42.4c1.6-5.7 4.3-11.1 7.6-15.9M77.7 34H65.9c-1.3-5-3.1-9.7-5.5-14.2 7.3 2.5 13.4 7.5 17.3 14.2M50 10c-22.1 0-40 18-40 40 0 22.1 17.9 40 40 40s40-17.9 40-40-17.9-40-40-40z" style="fill:#fff"/></svg>