<svg xmlns="http://www.w3.org/2000/svg" xml:space="preserve" style="enable-background:new 0 0 100 100" viewBox="0 0 100 100"><path d="M42.2 16.5c-.9-1-2.2-1.5-3.5-1.5-1.3 0-2.6.5-3.5 1.5-.9.9-1.4 2.2-1.4 3.5 0 1.3.5 2.6 1.4 3.5.9.9 2.2 1.5 3.5 1.4 1.4 0 2.6-.5 3.5-1.4.9-.9 1.4-2.1 1.4-3.5 0-1.3-.5-2.6-1.4-3.5zM38.7 85c1.4 0 2.6-.6 3.5-1.5.9-.9 1.4-2.1 1.4-3.5s-.5-2.6-1.4-3.5c-.9-1-2.2-1.5-3.5-1.5-1.3 0-2.6.5-3.5 1.5-.9.9-1.4 2.2-1.4 3.5 0 1.3.5 2.6 1.4 3.5 1 1 2.2 1.5 3.5 1.5zm26.8-15.1c1.3-.3 2.4-1.2 3-2.3l.1-.2c.6-1.1.7-2.4.4-3.6-.3-1.3-1.1-2.4-2.3-3h-.1c-1.1-.6-2.4-.8-3.7-.4-1.3.3-2.4 1.2-3 2.3-.7 1.2-.8 2.5-.5 3.8.3 1.3 1.2 2.4 2.3 3 1.3.6 2.6.7 3.8.4zm-21.7-25c-1.3-1.4-3.1-2.1-5-2.1s-3.7.8-5 2.1c-1.3 1.4-2.1 3.2-2.1 5.1 0 1.9.7 3.8 2.1 5.1 1.3 1.3 3.1 2.1 5 2.1 2 0 3.8-.8 5-2.1 1.3-1.4 2.1-3.2 2.1-5.1-.1-1.9-.8-3.7-2.1-5.1zm-2.9-8.5c2.8.5 5.4 1.8 7.4 3.9.3.3.6.7.9 1l4.9-2.9c-.6-2-.7-4.1-.2-6.1.7-2.8 2.5-5.1 4.9-6.5l.1-.1c2.4-1.4 5.3-1.8 8-1 2.7.7 5 2.6 6.4 5 1.4 2.5 1.8 5.4 1.1 8.2-.7 2.8-2.5 5.1-4.9 6.6l-.7.4h-.1c-2.4 1.1-4.9 1.3-7.3.7-2-.5-3.8-1.7-5.1-3.2l-4.9 2.9c.6 1.6.9 3.2.9 4.9 0 1.7-.3 3.3-.9 4.9l4.9 2.9c1.4-1.6 3.2-2.7 5.1-3.2 2.7-.8 5.6-.4 8.1 1.1l.2.1c2.4 1.5 4.1 3.8 4.8 6.5.7 2.8.3 5.7-1.1 8.2l-.1.2c-1.4 2.4-3.7 4.1-6.3 4.9-2.7.7-5.6.3-8.1-1.1-2.5-1.4-4.2-3.8-4.9-6.6-.5-2-.5-4.2.2-6.1l-4.9-2.9c-.3.3-.6.7-.9 1-2 2-4.6 3.4-7.4 3.9v5.8c2 .4 3.9 1.5 5.3 2.9 2 2 3.1 4.8 3.1 7.6s-1.1 5.6-3.1 7.6c-1.9 2-4.6 3.2-7.5 3.2-2.8 0-5.5-1.1-7.5-3.2-2-2-3.1-4.8-3.1-7.6 0-3 1.2-5.7 3.1-7.6 1.4-1.5 3.3-2.5 5.3-2.9V64c-2.8-.5-5.4-1.8-7.4-3.9-2.6-2.6-4-6.1-4-9.8 0-3.8 1.5-7.3 4-9.8 2-2.1 4.6-3.4 7.4-3.9v-5.8c-2-.4-3.8-1.5-5.3-2.9-2-2-3.1-4.8-3.1-7.6 0-2.9 1.1-5.6 3.1-7.6s4.7-3.2 7.5-3.2c2.9 0 5.6 1.2 7.5 3.2 2 2 3.1 4.8 3.1 7.6 0 2.9-1.1 5.6-3.1 7.6-1.4 1.5-3.3 2.5-5.3 2.9l-.1 5.6zm27.6-3.9c-.7-1.2-1.8-2-3-2.3-1.3-.3-2.6-.2-3.7.5s-2 1.8-2.3 3c-.3 1.3-.2 2.7.5 3.8.6 1.1 1.7 2 3 2.3 1.3.4 2.6.2 3.7-.5h.1c1.1-.7 1.9-1.8 2.2-3 .4-1.2.2-2.6-.5-3.8" style="fill:#fff"/></svg>