<svg xmlns="http://www.w3.org/2000/svg" xml:space="preserve" id="Layer_1" x="0" y="0" style="enable-background:new 0 0 100 100" version="1.1" viewBox="0 0 100 100"><style>.st0{fill:#fff}</style><path d="M48.6 80.1h33.6v-3.5c0-2.1-1.7-3.8-3.8-3.8H52.5c-2.1 0-3.8 1.7-3.8 3.8v3.5zM42.4 86.2v3.3h46.1v-3.3c0-1.9-1.6-3.5-3.5-3.5H45.8c-1.8 0-3.4 1.6-3.4 3.5zM12 62.7c.5.8 1.3 1.4 2.2 1.7.9.2 1.9.1 2.7-.4l34.9-20.6-2.8-5-35.6 19.4c-.9.5-1.5 1.2-1.7 2.2-.3.9-.2 1.9.3 2.7zM46.246 28.347l13.919-7.892 12.776 22.53-13.918 7.893zM62 14.1l-1.4-2.5c-.4-.6-1-1-1.7-1-.3 0-.7.1-1 .3L39.1 21.6c-.9.5-1.3 1.7-.7 2.6l1.4 2.5c.5.9 1.7 1.3 2.6.7l18.9-10.7c.9-.5 1.3-1.7.7-2.6zM80.9 47l-1.4-2.5c-.3-.5-.7-.8-1.2-.9-.2 0-.3-.1-.5-.1-.3 0-.7.1-1 .3l-1.4.8-16.2 9.2-1.3.7c-.5.3-.8.7-.9 1.2-.1.5-.1 1 .2 1.5l1.4 2.5c.5.9 1.7 1.3 2.6.7l18.9-10.7c1-.5 1.3-1.7.8-2.7z" class="st0"/></svg>