<svg xmlns="http://www.w3.org/2000/svg" id="Layer_1" viewBox="0 0 100 100"><defs><style>.cls-2{fill:none}.cls-3{stroke-width:0}.cls-2{stroke:#fff;stroke-miterlimit:10}.cls-3{fill:#fff}</style></defs><path d="M9.5 15.29h81v70h-81z" style="stroke-width:0;fill:none"/><path d="M87.31 33.59c-4.32 2.23-26.71 11.58-31.53 14.06-4.82 2.48-7.41 2.48-11.18.67-3.77-1.81-27.52-11.53-31.83-13.59-4.3-2.06-4.39-3.5-.17-5.16 4.22-1.66 27.92-11.03 32.92-12.85s6.74-1.87 10.99-.3 26.55 10.52 30.74 12.07c4.19 1.55 4.38 2.84.05 5.1v.02Z" class="cls-2"/><path d="M87.31 33.57v.02c-4.32 2.23-26.71 11.58-31.53 14.06-4.82 2.48-7.41 2.48-11.18.67-3.77-1.81-27.52-11.53-31.83-13.6-2.13-1.02-3.22-1.89-3.27-2.7v8.23c0 .83 1.11 1.7 3.28 2.73 4.3 2.07 28.08 11.78 31.85 13.59 3.77 1.81 6.33 1.83 11.16-.67 4.82-2.5 27.22-11.79 31.53-14.06 2.21-1.17 3.18-2 3.16-2.86v-8.14c-.03.78-1.06 1.65-3.16 2.74Z" class="cls-3"/><path d="M87.33 49.14C83.01 51.37 60.62 60.72 55.8 63.2c-4.82 2.48-7.41 2.48-11.18.67-3.77-1.81-27.52-11.53-31.83-13.59-4.3-2.06-4.39-3.5-.17-5.16 4.22-1.66 27.92-11.03 32.92-12.85s6.74-1.87 10.99-.3 26.55 10.52 30.74 12.07c4.19 1.55 4.38 2.84.05 5.1v.02Z" class="cls-2"/><path d="M87.33 49.12v.02C83.01 51.37 60.62 60.72 55.8 63.2c-4.82 2.48-7.41 2.48-11.18.67-3.77-1.81-27.52-11.53-31.83-13.6-2.13-1.02-3.22-1.89-3.27-2.7v8.23c0 .83 1.11 1.7 3.28 2.73 4.3 2.07 28.08 11.78 31.85 13.59 3.77 1.81 6.33 1.83 11.16-.67 4.82-2.5 27.22-11.79 31.53-14.06 2.21-1.17 3.18-2 3.16-2.86v-8.14c-.03.78-1.06 1.65-3.16 2.74Z" class="cls-3"/><path d="M87.33 66.3c-4.32 2.23-26.71 11.58-31.53 14.06-4.82 2.48-7.41 2.48-11.18.67-3.77-1.81-27.52-11.53-31.83-13.59-4.3-2.06-4.39-3.5-.17-5.16 4.22-1.66 27.92-11.03 32.92-12.85s6.74-1.87 10.99-.3S83.08 59.65 87.27 61.2c4.19 1.55 4.38 2.84.05 5.1v.02Z" class="cls-2"/><path d="M87.33 66.28v.02c-4.32 2.23-26.71 11.58-31.53 14.06-4.82 2.48-7.41 2.48-11.18.67-3.77-1.81-27.52-11.53-31.83-13.6-2.13-1.02-3.22-1.89-3.27-2.7v8.23c0 .83 1.11 1.7 3.28 2.73 4.3 2.07 28.08 11.78 31.85 13.59 3.77 1.81 6.33 1.83 11.16-.67 4.82-2.5 27.22-11.79 31.53-14.06 2.21-1.17 3.18-2 3.16-2.86v-8.14c-.03.78-1.06 1.65-3.16 2.74Z" class="cls-3"/></svg>