<svg xmlns="http://www.w3.org/2000/svg" xml:space="preserve" id="Layer_1" x="0" y="0" style="enable-background:new 0 0 100 100" version="1.1" viewBox="0 0 100 100"><style>.st0{fill:#fff}</style><path d="M20.8 72.2c-2.5 0-4.9-.5-7.2-1.6S9.4 68.1 8 66.4l2.5-8.8c1.3 1.5 2.9 2.8 4.8 3.8 1.8 1 3.7 1.5 5.6 1.5 1.4 0 2.6-.2 3.5-.7.9-.5 1.5-1.1 1.9-1.9.4-.8.6-1.8.6-2.8 0-1.3-.3-2.4-1-3.2-.7-.8-1.5-1.4-2.6-2s-2.3-1-3.6-1.4c-1.3-.5-2.6-1-3.9-1.7-1.3-.7-2.5-1.5-3.6-2.6s-1.9-2.5-2.6-4.2c-.7-1.7-1-3.9-1-6.6 0-2.9.5-5.5 1.5-7.9 1-2.4 2.4-4.3 4.4-5.7 2-1.4 4.4-2.1 7.4-2.1 2 0 3.9.4 5.8 1.1 1.9.7 3.6 1.9 5.1 3.4l-2.2 8.9c-1.5-1.3-2.9-2.3-4.4-3-1.5-.7-2.9-1-4.3-1s-2.6.3-3.4.8c-.9.5-1.5 1.2-1.9 2.1-.4.8-.6 1.8-.6 2.9 0 1.3.3 2.3 1 3.1.7.8 1.5 1.4 2.6 1.9s2.3 1 3.6 1.4c1.3.5 2.6 1 3.9 1.7 1.3.6 2.5 1.5 3.6 2.5 1.1 1.1 1.9 2.5 2.6 4.2.7 1.7 1 3.9 1 6.6 0 2.8-.5 5.4-1.5 7.8-1 2.4-2.5 4.3-4.4 5.7-2.1 1.3-4.6 2-7.6 2zM49.4 72.2c-2.5 0-4.9-.5-7.2-1.6s-4.2-2.5-5.6-4.2l2.5-8.8c1.3 1.5 2.9 2.8 4.8 3.8 1.8 1 3.7 1.5 5.6 1.5 1.4 0 2.6-.2 3.5-.7.9-.5 1.5-1.1 1.9-1.9.4-.8.6-1.8.6-2.8 0-1.3-.3-2.4-1-3.2s-1.5-1.4-2.6-2c-1.1-.5-2.3-1-3.6-1.4-1.3-.5-2.6-1-3.9-1.7-1.3-.7-2.5-1.5-3.6-2.6s-1.9-2.5-2.6-4.2c-.7-1.7-1-3.9-1-6.6 0-2.9.5-5.5 1.5-7.9 1-2.4 2.4-4.3 4.4-5.7 2-1.4 4.4-2.1 7.4-2.1 2 0 3.9.4 5.8 1.1 1.9.7 3.6 1.9 5.1 3.4l-2.2 8.9c-1.5-1.3-2.9-2.3-4.4-3-1.5-.7-2.9-1-4.3-1s-2.6.3-3.5.8c-.9.5-1.5 1.2-1.9 2.1-.4.8-.6 1.8-.6 2.9 0 1.3.3 2.3 1 3.1.7.8 1.5 1.4 2.6 1.9s2.3 1 3.6 1.4c1.3.5 2.6 1 3.9 1.7 1.3.6 2.5 1.5 3.6 2.5 1.1 1.1 1.9 2.5 2.6 4.2.7 1.7 1 3.9 1 6.6 0 2.8-.5 5.4-1.5 7.8-1 2.4-2.5 4.3-4.4 5.7-2 1.3-4.5 2-7.5 2zM74.9 62H92v9.4H67.7V20.8h23.7v9.4H74.9V62zm-.5-20.8h15.1v9.1H74.4v-9.1z" class="st0"/></svg>