<svg xmlns="http://www.w3.org/2000/svg" id="Layer_1" data-name="Layer 1" viewBox="0 0 100 100"><defs><style>.cls-1{fill:#fff;fill-rule:evenodd;stroke-width:0}</style></defs><g id="OvHZFw.tif"><path d="M47.18 43.23c-3.74 6.29-7.33 12.39-10.99 18.44-.94 1.55-1.41 2.82-.65 4.79 2.07 5.45-.85 10.76-6.35 12.2-5.19 1.36-10.24-2.05-11.27-7.6-.91-4.91 2.9-9.73 8.32-10.5.45-.06.92-.07 1.68-.13 2.65-4.45 5.37-9.01 8.24-13.82-5.18-5.15-8.27-11.18-7.59-18.65.48-5.28 2.56-9.84 6.35-13.58 7.26-7.16 18.35-8.32 26.9-2.82 8.22 5.28 11.98 15.56 8.77 24.36-2.42-.66-4.85-1.32-7.53-2.04 1.01-4.89.26-9.28-3.04-13.05-2.18-2.49-4.98-3.79-8.16-4.27-6.38-.96-12.64 3.13-14.49 9.39-2.11 7.1 1.08 12.91 9.8 17.28Z" class="cls-1"/><path d="M57.87 35.78c2.64 4.65 5.32 9.38 7.97 14.06C79.26 45.69 89.37 53.12 93 61.07c4.38 9.6 1.39 20.98-7.22 26.9-8.84 6.08-20.01 5.04-27.84-2.77 2-1.67 4-3.35 6.14-5.14 7.73 5.01 14.49 4.77 19.51-1.16 4.28-5.06 4.19-12.6-.22-17.55-5.08-5.72-11.89-5.89-20.12-.4-3.41-6.06-6.89-12.07-10.19-18.17-1.11-2.06-2.35-3.25-4.86-3.68-4.2-.73-6.91-4.33-7.07-8.37-.16-3.99 2.19-7.6 5.87-9.01 3.64-1.39 7.92-.27 10.37 2.83 2 2.53 2.64 5.38 1.59 8.5-.29.87-.67 1.71-1.08 2.74Z" class="cls-1"/><path d="M64.17 73.82H48.02c-1.55 6.37-4.89 11.51-10.65 14.78-4.48 2.54-9.31 3.4-14.44 2.57-9.46-1.53-17.19-10.04-17.87-19.63-.77-10.86 6.7-20.52 16.65-22.68.69 2.5 1.38 5.01 2.07 7.5-9.13 4.66-12.29 10.53-9.73 17.87 2.25 6.46 8.64 10 15.58 8.63 7.09-1.4 10.66-7.29 10.22-16.74 6.72 0 13.44-.07 20.16.03 2.62.04 4.65-.23 6.62-2.54 3.25-3.81 9.24-3.46 12.75.13 3.58 3.67 3.41 9.58-.38 13.1-3.66 3.39-9.43 3.21-12.85-.44-.7-.75-1.26-1.65-1.95-2.58Z" class="cls-1"/></g></svg>