<svg width="64" height="64" viewBox="0 0 64 64" fill="none" xmlns="http://www.w3.org/2000/svg">
<path d="M1.15625 50H27.5303L42.6553 64V50H62.8423V0H1.15625V50ZM11.0933 11.688H22.6562L44.9062 32.438V11.688H52.2812V38.5H41.0943L18.4702 17.375V38.5H11.0953L11.0933 11.688Z" fill="#B5B5B5"/>
<path d="M18.4697 17.3755L41.0938 38.5005H52.2797V11.6875H44.9057V32.4375L22.6558 11.6875H11.0938V38.5005H18.4688L18.4697 17.3755Z" fill="white"/>
<path d="M1.15625 0H62.8433V50H1.15625V0Z" fill="#27AAE1"/>
<path d="M32 0H62.844V25H32V0Z" fill="#929292"/>
<path d="M32 25H62.844V50H32V25Z" fill="#B5B5B5"/>
<path d="M1.15625 0H32.0002V25H1.15625V0Z" fill="#9F9F9F"/>
<path d="M1.15625 25H32.0002V50H1.15625V25Z" fill="#5B5B5B"/>
<path d="M32.0003 50L32.1543 54.303L27.5303 50H32.0003Z" fill="#5B5B5B"/>
<path d="M16.3666 15.8296L43.1246 40.8136H56.3546V9.10156H47.6326V33.6416L21.3196 9.10156H7.64355V40.8116H16.3656L16.3666 15.8296Z" fill="white"/>
</svg>
