<?xml version="1.0" encoding="UTF-8"?><svg id="Layer_1" xmlns="http://www.w3.org/2000/svg" viewBox="0 0 43 43"><defs><style>.cls-1{fill:#fff;fill-rule:evenodd;stroke-width:0px;}</style></defs><path class="cls-1" d="m29.5,22.53c.95-.09,1.89-.09,2.84-.17v-.69c-.95-.09-1.89-.09-2.84-.17l-2.84-.09c-1.63-.09-3.36-.09-4.99-.09,0-1.63,0-3.36-.09-4.99l-.09-2.84c-.09-.95-.09-1.89-.17-2.84h-.77c-.09.95-.09,1.89-.17,2.84l-.09,2.84v2.32c-.34-.69-.6-1.46-.95-2.15l-1.2-2.58c-.43-.86-.77-1.72-1.2-2.58l-.69.26c.34.95.6,1.81.95,2.67l1.03,2.67c.26.77.6,1.46.86,2.24-.6-.52-1.12-1.12-1.72-1.63l-2.07-1.98c-.69-.6-1.38-1.29-2.15-1.89l-.6.6c.6.69,1.29,1.38,1.89,2.15l1.98,2.07c.52.6,1.12,1.12,1.63,1.72-.69-.26-1.46-.6-2.24-.86l-2.67-1.03c-.86-.34-1.81-.69-2.67-.95l-.34.77c.86.43,1.72.77,2.58,1.2l2.58,1.2c.69.34,1.46.6,2.15.95h-2.32l-2.84.09c-.95.09-1.89.09-2.84.17v.77c.95.09,1.89.09,2.84.17l2.84.09c1.72.09,3.36.09,4.99.09,0,1.63,0,3.36.09,4.99l.09,2.84c.09.95.09,1.89.17,2.84h.69c.09-.95.09-1.89.17-2.84l.09-2.84c0-.77,0-1.63.09-2.41.34.77.6,1.46.95,2.24l1.2,2.58c.43.86.77,1.72,1.2,2.58l.69-.26c-.26-.95-.6-1.81-.95-2.67l-.86-2.84c-.26-.77-.6-1.46-.86-2.24.6.6,1.12,1.12,1.72,1.63l2.07,1.98c.69.6,1.38,1.29,2.15,1.89l.52-.52c-.6-.69-1.29-1.38-1.89-2.15l-1.98-2.07c-.52-.6-1.12-1.2-1.63-1.72.77.26,1.46.6,2.24.86l2.67,1.03c.86.34,1.81.69,2.67.95l.26-.69c-.86-.43-1.72-.86-2.58-1.2l-2.58-1.2c-.77-.34-1.46-.69-2.24-.95.77,0,1.63,0,2.41-.09,0,0,2.84-.09,2.84-.09Z"/><path class="cls-1" d="m21.5,40c-10.24,0-18.5-8.26-18.5-18.5S11.26,3,21.5,3s18.5,8.26,18.5,18.5-8.26,18.5-18.5,18.5m0-35.28c-9.21,0-16.78,7.57-16.78,16.78s7.57,16.78,16.78,16.78,16.78-7.57,16.78-16.78S30.71,4.72,21.5,4.72"/></svg>