<?xml version="1.0" encoding="UTF-8"?><svg id="Layer_1" xmlns="http://www.w3.org/2000/svg" viewBox="0 0 1072.44 288.45"><defs><style>.cls-1{fill:none;}.cls-1,.cls-2,.cls-3,.cls-4{stroke-width:0px;}.cls-2{fill:#2c7a96;}.cls-3{fill:#3aa4ca;}.cls-4{fill:#7cbbd2;}</style></defs><path class="cls-3" d="m335.15,222.9c-10.17,0-19.07-1.78-26.7-5.33s-13.52-8.49-17.68-14.83c-4.16-6.33-6.23-13.48-6.23-21.46s1.82-14.83,5.47-21.07c3.64-6.24,9.62-11.18,17.93-14.83,8.31-3.64,19.33-5.46,33.06-5.46h39.42v21.59h-37.13c-10.85,0-18.14,1.78-21.87,5.33-3.73,3.56-5.59,7.93-5.59,13.14,0,5.9,2.29,10.58,6.87,14.05,4.58,3.47,10.94,5.2,19.07,5.2s14.79-1.82,20.98-5.46c6.19-3.64,10.64-9.01,13.35-16.13l5.34,19.51c-3.05,8.15-8.52,14.48-16.4,18.99-7.88,4.51-17.85,6.76-29.88,6.76Zm42.73-1.82v-28.09l-1.78-5.98v-49.16c0-9.53-2.8-16.95-8.39-22.24-5.59-5.29-14.07-7.93-25.43-7.93-7.63,0-15.13,1.22-22.51,3.64-7.38,2.43-13.61,5.81-18.69,10.14l-12.46-23.67c7.29-5.72,15.98-10.01,26.07-12.87,10.09-2.86,20.56-4.29,31.41-4.29,19.67,0,34.88,4.81,45.65,14.44,10.77,9.62,16.15,24.49,16.15,44.61v81.41h-30.01Z"/><path class="cls-3" d="m441.36,221.08V82.19h30.26v38.23l-3.56-11.18c4.07-9.36,10.47-16.47,19.2-21.33,8.73-4.85,19.62-7.28,32.68-7.28v30.95c-1.36-.35-2.63-.56-3.81-.65-1.19-.09-2.38-.13-3.56-.13-12.04,0-21.62,3.6-28.74,10.79-7.12,7.2-10.68,17.91-10.68,32.12v67.37h-31.79Z"/><path class="cls-3" d="m538.84,221.08V82.19h30.26v38.23l-3.56-11.18c4.07-9.36,10.47-16.47,19.2-21.33,8.73-4.85,19.62-7.28,32.68-7.28v30.95c-1.36-.35-2.63-.56-3.82-.65-1.19-.09-2.38-.13-3.56-.13-12.04,0-21.62,3.6-28.74,10.79-7.12,7.2-10.68,17.91-10.68,32.12v67.37h-31.79Z"/><path class="cls-3" d="m698.34,222.9c-13.9,0-26.28-3.08-37.13-9.23-10.85-6.15-19.42-14.61-25.69-25.36-6.27-10.75-9.41-22.97-9.41-36.67s3.14-26.14,9.41-36.8c6.27-10.66,14.83-19.03,25.69-25.1,10.85-6.07,23.23-9.1,37.13-9.1s26.58,3.04,37.51,9.1c10.94,6.07,19.5,14.4,25.69,24.97,6.19,10.58,9.28,22.89,9.28,36.93s-3.1,25.92-9.28,36.67c-6.19,10.75-14.75,19.21-25.69,25.36-10.94,6.16-23.44,9.23-37.51,9.23Zm0-27.83c7.8,0,14.75-1.73,20.85-5.2,6.1-3.47,10.89-8.49,14.37-15.09,3.47-6.59,5.21-14.31,5.21-23.15s-1.74-16.78-5.21-23.28c-3.48-6.5-8.27-11.49-14.37-14.96-6.1-3.47-12.97-5.2-20.6-5.2s-14.71,1.74-20.73,5.2c-6.02,3.47-10.81,8.45-14.37,14.96s-5.34,14.26-5.34,23.28,1.78,16.56,5.34,23.15c3.56,6.59,8.35,11.62,14.37,15.09,6.02,3.47,12.84,5.2,20.47,5.2Z"/><path class="cls-3" d="m802.92,273.36c-6.61,0-13.22-1.13-19.84-3.38-6.61-2.26-12.12-5.38-16.53-9.36l12.72-23.93c3.22,2.95,6.87,5.29,10.94,7.02,4.07,1.73,8.22,2.6,12.46,2.6,5.76,0,10.43-1.48,13.99-4.42,3.56-2.95,6.87-7.89,9.92-14.83l7.88-18.21,2.54-3.9,51.37-122.77h30.52l-63.58,150.08c-4.24,10.4-8.95,18.64-14.12,24.71-5.17,6.07-10.94,10.31-17.29,12.75-6.36,2.43-13.35,3.64-20.98,3.64Zm27.98-47.34l-61.29-143.83h33.06l49.85,119.91-21.62,23.93Z"/><path class="cls-3" d="m990.3,222.9c-13.9,0-26.28-3.08-37.13-9.23-10.85-6.15-19.42-14.61-25.69-25.36-6.27-10.75-9.41-22.97-9.41-36.67s3.14-26.14,9.41-36.8c6.27-10.66,14.83-19.03,25.69-25.1,10.85-6.07,23.23-9.1,37.13-9.1s26.58,3.04,37.51,9.1c10.94,6.07,19.5,14.4,25.69,24.97,6.19,10.58,9.28,22.89,9.28,36.93s-3.1,25.92-9.28,36.67c-6.19,10.75-14.75,19.21-25.69,25.36-10.94,6.16-23.44,9.23-37.51,9.23Zm0-27.83c7.8,0,14.75-1.73,20.85-5.2,6.1-3.47,10.89-8.49,14.37-15.09,3.47-6.59,5.21-14.31,5.21-23.15s-1.74-16.78-5.21-23.28c-3.48-6.5-8.27-11.49-14.37-14.96-6.1-3.47-12.97-5.2-20.6-5.2s-14.71,1.74-20.73,5.2c-6.02,3.47-10.81,8.45-14.37,14.96s-5.34,14.26-5.34,23.28,1.78,16.56,5.34,23.15c3.56,6.59,8.35,11.62,14.37,15.09,6.02,3.47,12.84,5.2,20.47,5.2Z"/><path class="cls-1" d="m205.05,98.89c-5.47-13.31-13.55-25.27-23.61-35.24-56.28-12.66-112.56,57.55-168.83,25.37-4.41,8.22-7.78,17.09-9.92,26.43,67.53,51.52,134.85-61.96,202.36-16.57Z"/><path class="cls-1" d="m200.36,189.69c4-7.44,7.15-15.41,9.3-23.78-66.52-51.53-133.04,57.96-199.56,18.72,5.26,11.18,12.41,21.3,21.04,29.95,56.41,11.96,112.81-58.52,169.22-24.88Z"/><path class="cls-1" d="m129.55,243.31c5.89-1.3,11.6-3.09,17.08-5.32-5.69,1.38-11.39,3.22-17.08,5.32Z"/><path class="cls-2" d="m181.44,63.65c-19.24-19.06-45.71-30.83-74.94-30.83-40.63,0-75.94,22.75-93.89,56.2,56.28,32.18,112.56-38.03,168.83-25.37Z"/><path class="cls-3" d="m209.65,165.91c2.18-8.5,3.35-17.41,3.35-26.59,0-13.75-1.8-27.5-7.26-39.02-.04-.07-.07-.15-.11-.22-.37-.78-.96-1.45-1.68-1.92-.06-.04-.12-.08-.19-.12C138.16,55.16,69.77,166.64,2.69,115.46c-1.76,7.67-2.69,15.66-2.69,23.86,0,16.03,3.55,31.22,9.89,44.85.07.15.47.61.61.68,66.39,38.58,132.78-70.38,199.16-18.95Z"/><path class="cls-4" d="m200.36,189.69c-56.41-33.64-112.81,36.84-169.22,24.88,19.28,19.31,45.93,31.25,75.36,31.25,7.91,0,15.62-.87,23.05-2.51,5.69-2.1,11.39-3.94,17.08-5.32,23.03-9.38,42.04-26.58,53.73-48.31Z"/></svg>