<svg xmlns="http://www.w3.org/2000/svg" xml:space="preserve" id="Layer_1" x="0" y="0" style="enable-background:new 0 0 100 100" version="1.1" viewBox="0 0 100 100"><style>.st0{fill:none;stroke:#fff;stroke-width:7;stroke-miterlimit:10}</style><path d="m7.1 54.5-5.7-9 13.1 2z" style="fill:#fff;stroke:#fff;stroke-miterlimit:10"/><path d="M9.7 51.8c-.4-1.2-.8-2.4-1.2-3.5M7.9 52c-.3-1.3-.5-2.6-.6-3.9M12.5 51.7c-1.2-2.5-1.4-2.8-1.6-3.4" class="st0"/><path d="M8.2 43C12.1 18.8 34.8 2.3 59 6.2S99.7 32.8 95.8 57C92 81.2 69.2 97.7 45 93.8c-12.8-2.1-24.1-9.6-30.9-20.7" class="st0"/><path d="M56.5 26.9C43.2 45.1 71 45.6 50.3 73.1M43.1 24.3C21.7 53.2 59.3 53.5 32 75.7" class="st0"/><path d="M74.6 33.4c-5.9 6.4 7.3 22.8-23 33.3" class="st0"/></svg>