<svg version="1" xmlns="http://www.w3.org/2000/svg" width="933.333" height="933.333" viewBox="0 0 700.000000 700.000000"><path style="fill: #fff;" d="M327.8.4c-.1.2-4.1.6-8.8 1-9.7.8-9.8.8-32.5 4.2-1.6.3-3.7.7-4.5.9-.8.2-2.6.6-4 .9-6.4 1.1-27.4 6.7-35.6 9.4-32.6 10.9-67.9 28.3-90.4 44.5-3.2 2.3-6.8 4.9-8 5.7-1.3.8-5.9 4.4-10.4 7.9-48.3 38.2-86.2 88.8-108.5 144.9-9.1 22.8-18 54.8-20.6 74.2-.3 2.5-.8 5.6-1.1 7-.5 2.8-.9 6.4-2.1 19-1.5 16.2-.8 58.9 1.2 71.1.2 1.3.6 4.6 1 7.4.9 7.6 1.6 11.6 2.5 16 .5 2.2 1.1 5.3 1.4 7 .9 4.9 1.3 6.6 3.6 15.5 2.1 8.5 7.3 25.7 8.9 29.5.5 1.1 2.5 6.5 4.6 12 4.9 13 18.2 40.1 25.1 51.1 3 4.7 5.4 9 5.4 9.5s-12.2 13.2-27.1 28.1l-27 27.2 52.3 52.3 52.4 52.4 27-27c14.9-14.9 27.7-27.1 28.4-27.1.7 0 3.6 1.5 6.4 3.4 2.8 1.8 8.7 5.3 13.1 7.6 4.4 2.4 8.5 4.6 9 5 .9.6 18.8 8.9 27 12.5 21.2 9.3 60.7 20 85.5 23.1 1.4.2 4.1.5 6 .8 18.7 2.9 65.4 2.8 85 0 26.9-3.9 46.9-8.6 69-16 58.1-19.7 112.1-55.5 150.3-99.9 3.3-3.9 6.3-7.2 6.7-7.5.3-.3 3.5-4.3 7.1-9 41.6-54 66.2-116.6 72.6-184.5 1.5-15.5.6-69.6-1.2-72.5-.2-.3-.6-3-.9-6-.3-3-.8-6.4-1-7.5-.2-1.1-1.1-6.1-2.1-11-7.1-38.4-22.4-78.3-43.1-113.1-3-5-5.4-9.4-5.4-9.9 0-.4 11.1-11.9 24.8-25.5 13.6-13.6 25.7-25.9 26.9-27.2l2.2-2.4-52.3-52.3L594.3.8l-27.1 27.1C552.3 42.8 539.8 55 539.3 55s-4.2-2.1-8.3-4.7c-34.9-21.7-84.3-39.7-125.5-45.9-2.7-.4-5.7-.9-6.5-1-.8-.2-4.4-.6-8-.9-3.6-.4-7.6-.9-9-1.2-2.7-.5-53.6-1.4-54.2-.9zm41.1 134c6.1.6 8.9.9 16.6 2 5.6.8 17 3.5 26 6.1 9.5 2.8 29.5 10.3 29.5 11.1 0 .7-286.7 287.4-287.4 287.4-1.4 0-13.4-35-14.9-43.6-.3-1.6-1.2-6.7-2.1-11.4-3.4-18.8-3.9-51.4-1.1-66.2.3-1.2 1.1-6.1 2-10.9.8-4.7 3-13.8 5-20.2 13.8-45.8 37.6-80.2 77.3-111.9 6.5-5.1 23.2-15.2 34.4-20.8 11.8-5.8 36.3-14.9 44-16.4 2.4-.4 9.9-1.9 10.8-2.1.3-.1 2.8-.5 5.5-1 2.8-.4 5.9-.9 7-1.1 1.1-.2 6.1-.7 11-1 5-.4 9.1-.7 9.2-.9.5-.3 20.5.3 27.2.9zm179.5 128.8c11.6 26.7 17.9 57.4 18 86.8 0 8.7-1 24.5-1.9 29-.3 1.3-.7 4.2-1.1 6.5-3.7 25.7-17.2 60.3-32.1 82.7-22.6 33.7-50.6 58.5-85.8 75.8-31.2 15.3-62.3 22.5-97 22.4-15.2-.1-24.5-1-39.1-3.9-4.3-.9-9.2-1.9-10.9-2.2-6.5-1.1-36.4-11.8-39.4-14-.4-.3 286.1-287.2 286.9-287.3.3 0 1.4 1.9 2.4 4.2z"/></svg>